# xmcd
#
# Track frame offsets: 
#        150
#        20435
#        39187
#        60399
#        81268
#        101629
#        124870
#        137106
#        155909
#        178448
#
# Disc length: 2683 seconds
#
# Revision: 2
# Processed by: cddbd v1.5.2PL0 Copyright (c) Steve Scherf et al.
# Submitted via: ExactAudioCopy v0.99pb3
#
DISCID=870a790a
DTITLE=Edward M. Smith - Smooth Jazz Christmas [CD2]
DYEAR=2007
DGENRE=Jazz
TTITLE0=The First Noel
TTITLE1=Merry Christmas Baby
TTITLE2=O Holy Night
TTITLE3=Christmas Time Is Here
TTITLE4=The Christmas Waltz
TTITLE5=What Child Is This?
TTITLE6=Away In The Manger
TTITLE7=Let It Snow, Let It Snow, Let It Snow
TTITLE8=What Are You Doing New Year's Eve?
TTITLE9=O Little Town Of Bethlehem
EXTD=YEAR: 2007
EXTT0=
EXTT1=
EXTT2=
EXTT3=
EXTT4=
EXTT5=
EXTT6=
EXTT7=
EXTT8=
EXTT9=
PLAYORDER=
